<svg width="116" height="105" viewBox="0 0 116 105" fill="none" xmlns="http://www.w3.org/2000/svg">
<path d="M76.3333 3V45.5728C76.3333 45.7699 76.3916 45.9625 76.5007 46.1266L111.966 99.4462C112.409 100.111 111.932 101 111.134 101H4.86617C4.06795 101 3.59146 100.111 4.03354 99.4462L39.4993 46.1266C39.6084 45.9625 39.6667 45.7699 39.6667 45.5728V3" stroke="#2166C1" stroke-width="6" stroke-linejoin="round"/>
<path d="M28 3H89" stroke="#2166C1" stroke-width="6" stroke-linecap="round" stroke-linejoin="round"/>
<path d="M88.468 69.2186L73.2977 46.9372C73.1114 46.6637 72.802 46.5 72.4711 46.5H47.5289C47.198 46.5 46.8886 46.6637 46.7023 46.9372L31.532 69.2186C31.306 69.5505 31.5438 70 31.9453 70H88.0547C88.4562 70 88.694 69.5505 88.468 69.2186Z" fill="#FFC12B"/>
</svg>
