<svg width="111" height="90" viewBox="0 0 111 90" fill="none" xmlns="http://www.w3.org/2000/svg">
<path d="M103.5 52C103.5 52.2761 103.724 52.5 104 52.5C104.276 52.5 104.5 52.2761 104.5 52H103.5ZM103.5 27V52H104.5V27H103.5Z" fill="#FBA912"/>
<path fill-rule="evenodd" clip-rule="evenodd" d="M21.1308 45.183C20.9646 45.0999 20.769 45.2207 20.769 45.4066V69.2326C20.769 69.2326 20.769 69.2326 20.769 69.2326C20.769 69.2326 20.769 90.0017 55.3842 90.0017C89.9994 90.0017 89.9994 69.2326 89.9994 69.2326C89.9994 69.2326 89.9994 69.2326 89.9994 69.2326V45.4066C89.9994 45.2208 89.8038 45.0999 89.6375 45.183L55.8315 62.0861C55.55 62.2268 55.2186 62.2268 54.9371 62.0861L21.1308 45.183Z" fill="#2166C1"/>
<path d="M0.904181 27.052L55.278 0.109995C55.4179 0.040686 55.5821 0.0406875 55.722 0.109997L110.096 27.052C110.466 27.2357 110.466 27.7643 110.096 27.948L55.722 54.89C55.5821 54.9593 55.4179 54.9593 55.278 54.89L0.904182 27.948C0.533503 27.7643 0.533503 27.2357 0.904181 27.052Z" fill="#FFC12B"/>
</svg>
