<svg width="403" height="871" viewBox="0 0 403 871" fill="none" xmlns="http://www.w3.org/2000/svg">
<path d="M71.4778 785.591L71.532 693.135C71.5442 672.285 73.1486 656.392 76.3451 645.457C80.6831 630.762 88.3809 618.177 99.4385 607.702C110.496 597.227 124.059 589.259 140.126 583.8C156.08 578.34 175.792 575.618 199.262 575.631C219.884 575.643 237.656 578.217 252.578 583.353C270.803 589.63 285.552 598.582 296.825 610.21C305.365 618.988 312.023 630.841 316.799 645.769C320.324 656.936 322.082 671.862 322.071 690.547L322.015 785.738L71.4778 785.591ZM113.89 735.03L279.833 735.127L279.855 697.358C279.863 683.231 279.071 673.033 277.48 666.766C275.434 658.562 271.963 651.781 267.067 646.423C262.171 640.951 254.142 636.503 242.978 633.079C231.701 629.654 216.378 627.936 197.01 627.925C177.641 627.914 162.772 629.614 152.402 633.026C142.032 636.438 133.94 641.218 128.126 647.367C122.312 653.516 118.377 661.318 116.32 670.773C114.721 677.836 113.916 691.678 113.904 712.3L113.89 735.03Z" fill="#FFC12B"/>
<path d="M322.162 534.175L71.6252 534.028L71.6549 483.442L322.192 483.589L322.162 534.175ZM322.353 209.297L322.32 264.327L265.398 286.168L265.34 386.315L322.237 407.027L322.205 460.689L71.7255 362.959L71.7568 309.468L322.353 209.297ZM223.177 302.379L130.188 336.846L223.137 370.738L223.177 302.379ZM230.323 65.6886L188.111 65.6638L188.175 -43.3693L287.979 -43.3109C298.227 -32.7091 307.276 -17.323 315.125 2.84764C322.861 22.9043 326.722 43.2434 326.71 63.8652C326.695 90.0696 321.213 112.91 310.264 132.386C299.201 151.862 283.47 166.493 263.07 176.279C242.557 186.065 220.28 190.951 196.24 190.937C170.15 190.922 146.968 185.44 126.694 174.49C106.421 163.541 90.8784 147.524 80.0672 126.44C71.7596 110.371 67.6128 90.3735 67.6268 66.4477C67.645 35.3442 74.2104 11.0805 87.3228 -6.34349C100.321 -23.8814 118.329 -35.1502 141.347 -40.1497L150.716 10.0999C138.41 13.6246 128.722 20.284 121.652 30.078C114.469 39.758 110.873 51.8897 110.864 66.4731C110.851 88.5759 117.848 106.183 131.854 119.293C145.86 132.289 166.649 138.796 194.22 138.812C223.956 138.829 246.291 132.234 261.224 119.027C276.043 105.82 283.459 88.5062 283.471 67.0869C283.477 56.4912 281.433 45.8943 277.337 35.2962C273.128 24.5841 268.064 15.4096 262.144 7.77264L230.357 7.75401L230.323 65.6886Z" fill="white"/>
<path d="M162.652 847.844V856H131.871C132.204 852.917 133.204 850 134.871 847.25C136.538 844.479 139.829 840.812 144.746 836.25C148.704 832.562 151.132 830.062 152.027 828.75C153.236 826.938 153.84 825.146 153.84 823.375C153.84 821.417 153.309 819.917 152.246 818.875C151.204 817.812 149.757 817.281 147.902 817.281C146.069 817.281 144.611 817.833 143.527 818.938C142.444 820.042 141.819 821.875 141.652 824.438L132.902 823.562C133.423 818.729 135.059 815.26 137.809 813.156C140.559 811.052 143.996 810 148.121 810C152.642 810 156.194 811.219 158.777 813.656C161.361 816.094 162.652 819.125 162.652 822.75C162.652 824.812 162.277 826.781 161.527 828.656C160.798 830.51 159.632 832.458 158.027 834.5C156.965 835.854 155.048 837.802 152.277 840.344C149.507 842.885 147.746 844.573 146.996 845.406C146.267 846.24 145.673 847.052 145.215 847.844H162.652ZM183.465 810C187.902 810 191.371 811.583 193.871 814.75C196.85 818.5 198.34 824.719 198.34 833.406C198.34 842.073 196.84 848.302 193.84 852.094C191.361 855.219 187.902 856.781 183.465 856.781C179.007 856.781 175.413 855.073 172.684 851.656C169.954 848.219 168.59 842.104 168.59 833.312C168.59 824.688 170.09 818.479 173.09 814.688C175.569 811.562 179.027 810 183.465 810ZM183.465 817.281C182.402 817.281 181.454 817.625 180.621 818.312C179.788 818.979 179.142 820.188 178.684 821.938C178.079 824.208 177.777 828.031 177.777 833.406C177.777 838.781 178.048 842.479 178.59 844.5C179.132 846.5 179.809 847.833 180.621 848.5C181.454 849.167 182.402 849.5 183.465 849.5C184.527 849.5 185.475 849.167 186.309 848.5C187.142 847.812 187.788 846.594 188.246 844.844C188.85 842.594 189.152 838.781 189.152 833.406C189.152 828.031 188.882 824.344 188.34 822.344C187.798 820.323 187.111 818.979 186.277 818.312C185.465 817.625 184.527 817.281 183.465 817.281ZM233.902 847.844V856H203.121C203.454 852.917 204.454 850 206.121 847.25C207.788 844.479 211.079 840.812 215.996 836.25C219.954 832.562 222.382 830.062 223.277 828.75C224.486 826.938 225.09 825.146 225.09 823.375C225.09 821.417 224.559 819.917 223.496 818.875C222.454 817.812 221.007 817.281 219.152 817.281C217.319 817.281 215.861 817.833 214.777 818.938C213.694 820.042 213.069 821.875 212.902 824.438L204.152 823.562C204.673 818.729 206.309 815.26 209.059 813.156C211.809 811.052 215.246 810 219.371 810C223.892 810 227.444 811.219 230.027 813.656C232.611 816.094 233.902 819.125 233.902 822.75C233.902 824.812 233.527 826.781 232.777 828.656C232.048 830.51 230.882 832.458 229.277 834.5C228.215 835.854 226.298 837.802 223.527 840.344C220.757 842.885 218.996 844.573 218.246 845.406C217.517 846.24 216.923 847.052 216.465 847.844H233.902ZM239.996 844.219L248.746 843.312C248.996 845.292 249.736 846.865 250.965 848.031C252.194 849.177 253.611 849.75 255.215 849.75C257.048 849.75 258.6 849.01 259.871 847.531C261.142 846.031 261.777 843.781 261.777 840.781C261.777 837.969 261.142 835.865 259.871 834.469C258.621 833.052 256.986 832.344 254.965 832.344C252.444 832.344 250.184 833.458 248.184 835.688L241.059 834.656L245.559 810.812H268.777V819.031H252.215L250.84 826.812C252.798 825.833 254.798 825.344 256.84 825.344C260.736 825.344 264.038 826.76 266.746 829.594C269.454 832.427 270.809 836.104 270.809 840.625C270.809 844.396 269.715 847.76 267.527 850.719C264.548 854.76 260.413 856.781 255.121 856.781C250.892 856.781 247.444 855.646 244.777 853.375C242.111 851.104 240.517 848.052 239.996 844.219Z" fill="#FFC12B"/>
</svg>
