<svg width="187" height="30" viewBox="0 0 187 30" fill="none" xmlns="http://www.w3.org/2000/svg">
<path d="M24.0825 22V9.12H29.6625C30.9692 9.12 32.0692 9.34 32.9625 9.78C33.8558 10.2067 34.5358 10.9 35.0025 11.86C35.4692 12.8067 35.7025 14.0667 35.7025 15.64C35.7025 17.8533 35.1892 19.4667 34.1625 20.48C33.1492 21.4933 31.6492 22 29.6625 22H24.0825ZM27.3025 19.52H29.2225C29.9158 19.52 30.4958 19.42 30.9625 19.22C31.4425 19.0067 31.8025 18.62 32.0425 18.06C32.2958 17.5 32.4225 16.6933 32.4225 15.64C32.4225 14.5733 32.3092 13.7533 32.0825 13.18C31.8692 12.5933 31.5225 12.1867 31.0425 11.96C30.5758 11.72 29.9692 11.6 29.2225 11.6H27.3025V19.52ZM37.4764 11.02V8.6H40.9764V11.02H37.4764ZM37.7364 22V14.9H36.3364L36.6164 12.52H40.9564V22H37.7364ZM45.9683 22.2C45.3683 22.2 44.8083 22.0933 44.2883 21.88C43.7816 21.6667 43.3749 21.34 43.0683 20.9C42.7616 20.4467 42.6083 19.8867 42.6083 19.22C42.6083 18.2467 42.9349 17.4867 43.5883 16.94C44.2549 16.38 45.2483 16.1 46.5683 16.1H49.2083V15.88C49.2083 15.4 49.0483 15.06 48.7283 14.86C48.4083 14.6467 47.8083 14.54 46.9283 14.54C45.8483 14.54 44.7883 14.7067 43.7483 15.04V12.96C44.2149 12.7733 44.7816 12.62 45.4483 12.5C46.1283 12.38 46.8416 12.32 47.5883 12.32C49.0549 12.32 50.2016 12.62 51.0283 13.22C51.8683 13.82 52.2883 14.7733 52.2883 16.08V22H49.4683L49.3083 21.2C48.9616 21.52 48.5149 21.7667 47.9683 21.94C47.4349 22.1133 46.7683 22.2 45.9683 22.2ZM46.9883 20.22C47.4949 20.22 47.9349 20.1333 48.3083 19.96C48.6816 19.7867 48.9816 19.5667 49.2083 19.3V17.96H46.9283C45.9816 17.96 45.5083 18.34 45.5083 19.1C45.5083 19.4467 45.6283 19.72 45.8683 19.92C46.1083 20.12 46.4816 20.22 46.9883 20.22ZM58.2992 25.52C57.8326 25.52 57.3392 25.5 56.8192 25.46C56.2992 25.42 55.8059 25.36 55.3392 25.28C54.8726 25.2 54.4726 25.1067 54.1392 25V22.8C54.6726 22.9733 55.3126 23.1067 56.0592 23.2C56.8059 23.2933 57.4926 23.34 58.1192 23.34C58.9326 23.34 59.5392 23.2933 59.9392 23.2C60.3526 23.12 60.5592 22.9733 60.5592 22.76C60.5592 22.5733 60.4792 22.4467 60.3192 22.38C60.1592 22.3133 59.8459 22.28 59.3792 22.28H56.7592C55.9059 22.28 55.2392 22.1267 54.7592 21.82C54.2926 21.5133 54.0592 21.0667 54.0592 20.48C54.0592 20.08 54.1792 19.7 54.4192 19.34C54.6726 18.98 55.0392 18.7133 55.5192 18.54C54.9726 18.26 54.5592 17.9067 54.2792 17.48C53.9992 17.0533 53.8592 16.5133 53.8592 15.86C53.8592 14.6333 54.2526 13.74 55.0392 13.18C55.8392 12.6067 57.0059 12.32 58.5392 12.32C58.8592 12.32 59.2126 12.3467 59.5992 12.4C59.9992 12.44 60.2926 12.48 60.4792 12.52H64.1192L64.0392 14.52H62.6592C62.9926 14.8533 63.1592 15.3467 63.1592 16C63.1592 16.92 62.8592 17.66 62.2592 18.22C61.6726 18.78 60.7792 19.06 59.5792 19.06C59.3792 19.06 59.1792 19.0533 58.9792 19.04C58.7926 19.0133 58.6059 18.9933 58.4192 18.98C58.0726 19.02 57.7726 19.0933 57.5192 19.2C57.2792 19.3067 57.1592 19.46 57.1592 19.66C57.1592 19.82 57.2192 19.9267 57.3392 19.98C57.4726 20.0333 57.6659 20.06 57.9192 20.06H60.3392C61.3126 20.06 62.0659 20.2867 62.5992 20.74C63.1459 21.18 63.4192 21.8267 63.4192 22.68C63.4192 24.5733 61.7126 25.52 58.2992 25.52ZM58.5592 17.28C59.2659 17.28 59.7526 17.16 60.0192 16.92C60.2859 16.68 60.4192 16.28 60.4192 15.72C60.4192 15.16 60.2792 14.7533 59.9992 14.5C59.7326 14.2467 59.2526 14.12 58.5592 14.12C57.9059 14.12 57.4326 14.2467 57.1392 14.5C56.8592 14.74 56.7192 15.1467 56.7192 15.72C56.7192 16.2533 56.8526 16.6467 57.1192 16.9C57.3859 17.1533 57.8659 17.28 58.5592 17.28ZM64.9809 22V12.52H67.9809L68.0809 13.34C68.4676 13.0733 68.9543 12.84 69.5409 12.64C70.1276 12.4267 70.7543 12.32 71.4209 12.32C72.6476 12.32 73.5409 12.6133 74.1009 13.2C74.6609 13.7867 74.9409 14.6933 74.9409 15.92V22H71.7209V16.18C71.7209 15.6467 71.6076 15.2667 71.3809 15.04C71.1543 14.8133 70.7476 14.7 70.1609 14.7C69.8143 14.7 69.4609 14.78 69.1009 14.94C68.7409 15.1 68.4409 15.3 68.2009 15.54V22H64.9809ZM81.6983 22.2C79.8716 22.2 78.5249 21.78 77.6583 20.94C76.7916 20.0867 76.3583 18.86 76.3583 17.26C76.3583 15.6733 76.7916 14.4533 77.6583 13.6C78.5383 12.7467 79.8849 12.32 81.6983 12.32C83.5249 12.32 84.8716 12.7467 85.7383 13.6C86.6183 14.4533 87.0583 15.6733 87.0583 17.26C87.0583 18.86 86.6249 20.0867 85.7583 20.94C84.8916 21.78 83.5383 22.2 81.6983 22.2ZM81.6983 19.68C82.4449 19.68 82.9783 19.4933 83.2983 19.12C83.6183 18.7467 83.7783 18.1267 83.7783 17.26C83.7783 16.3933 83.6183 15.7733 83.2983 15.4C82.9783 15.0267 82.4449 14.84 81.6983 14.84C80.9649 14.84 80.4383 15.0267 80.1183 15.4C79.7983 15.7733 79.6383 16.3933 79.6383 17.26C79.6383 18.1267 79.7983 18.7467 80.1183 19.12C80.4383 19.4933 80.9649 19.68 81.6983 19.68ZM92.1142 22.2C91.3542 22.2 90.6342 22.1467 89.9542 22.04C89.2742 21.9333 88.7342 21.8 88.3342 21.64V19.18C88.8009 19.38 89.3409 19.5333 89.9542 19.64C90.5676 19.7467 91.1142 19.8 91.5942 19.8C92.1676 19.8 92.5809 19.7733 92.8342 19.72C93.1009 19.6667 93.2342 19.52 93.2342 19.28C93.2342 19.0133 93.0209 18.8133 92.5942 18.68C92.1676 18.5467 91.5809 18.3533 90.8342 18.1C89.9676 17.7933 89.3076 17.44 88.8542 17.04C88.4142 16.6267 88.1942 16.02 88.1942 15.22C88.1942 14.2867 88.5409 13.5733 89.2342 13.08C89.9409 12.5733 91.0609 12.32 92.5942 12.32C93.1942 12.32 93.7876 12.3667 94.3742 12.46C94.9609 12.5533 95.4409 12.66 95.8142 12.78V15.2C95.4409 15.0267 95.0142 14.9 94.5342 14.82C94.0542 14.74 93.6209 14.7 93.2342 14.7C92.7409 14.7 92.3209 14.7333 91.9742 14.8C91.6409 14.8533 91.4742 14.9933 91.4742 15.22C91.4742 15.4733 91.6609 15.6533 92.0342 15.76C92.4076 15.8533 92.9476 16.0133 93.6542 16.24C94.4009 16.4667 94.9809 16.7133 95.3942 16.98C95.8076 17.2333 96.1009 17.54 96.2742 17.9C96.4476 18.26 96.5342 18.7133 96.5342 19.26C96.5342 20.2067 96.1609 20.9333 95.4142 21.44C94.6676 21.9467 93.5676 22.2 92.1142 22.2ZM101.772 22.2C100.598 22.2 99.7316 21.9 99.1716 21.3C98.6249 20.7 98.3516 19.8733 98.3516 18.82V14.96H97.0716V12.52H98.3516V10.54L101.572 9.68V12.52H103.872L103.732 14.96H101.572V18.6C101.572 19.0533 101.685 19.3733 101.912 19.56C102.138 19.7333 102.478 19.82 102.932 19.82C103.318 19.82 103.712 19.7533 104.112 19.62V21.8C103.485 22.0667 102.705 22.2 101.772 22.2ZM105.992 11.02V8.6H109.492V11.02H105.992ZM106.252 22V14.9H104.852L105.132 12.52H109.472V22H106.252ZM116.524 22.2C114.831 22.2 113.504 21.7867 112.544 20.96C111.597 20.1333 111.124 18.9 111.124 17.26C111.124 15.5933 111.617 14.3533 112.604 13.54C113.604 12.7267 114.931 12.32 116.584 12.32C117.277 12.32 117.877 12.3733 118.384 12.48C118.904 12.5733 119.404 12.7333 119.884 12.96V15.24C119.137 14.88 118.264 14.7 117.264 14.7C116.331 14.7 115.617 14.8867 115.124 15.26C114.644 15.6333 114.404 16.3 114.404 17.26C114.404 18.1533 114.631 18.8067 115.084 19.22C115.537 19.62 116.257 19.82 117.244 19.82C118.217 19.82 119.104 19.62 119.904 19.22V21.6C119.424 21.8133 118.904 21.9667 118.344 22.06C117.797 22.1533 117.191 22.2 116.524 22.2ZM132.36 22.2C130.107 22.2 128.387 21.6267 127.2 20.48C126.027 19.32 125.44 17.7133 125.44 15.66C125.44 13.5133 126.014 11.8533 127.16 10.68C128.32 9.50667 130.047 8.92 132.34 8.92C133.127 8.92 133.827 8.98 134.44 9.1C135.067 9.22 135.667 9.38 136.24 9.58V12.4C135.08 11.92 133.86 11.68 132.58 11.68C131.247 11.68 130.267 12 129.64 12.64C129.027 13.28 128.72 14.2867 128.72 15.66C128.72 16.9667 129.047 17.9267 129.7 18.54C130.354 19.1533 131.327 19.46 132.62 19.46C133.247 19.46 133.867 19.4067 134.48 19.3C135.094 19.18 135.687 19 136.26 18.76V21.6C135.7 21.7867 135.107 21.9333 134.48 22.04C133.854 22.1467 133.147 22.2 132.36 22.2ZM142.971 22.2C141.318 22.2 139.991 21.7933 138.991 20.98C137.991 20.1533 137.491 18.9133 137.491 17.26C137.491 15.7533 137.904 14.5533 138.731 13.66C139.558 12.7667 140.798 12.32 142.451 12.32C143.958 12.32 145.124 12.7067 145.951 13.48C146.778 14.2533 147.191 15.2933 147.191 16.6V18.3H140.471C140.618 18.9267 140.958 19.3667 141.491 19.62C142.038 19.86 142.778 19.98 143.711 19.98C144.231 19.98 144.758 19.9333 145.291 19.84C145.838 19.7467 146.291 19.6267 146.651 19.48V21.58C146.198 21.7933 145.658 21.9467 145.031 22.04C144.404 22.1467 143.718 22.2 142.971 22.2ZM140.471 16.44H144.391V16.02C144.391 15.5533 144.251 15.1867 143.971 14.92C143.691 14.64 143.218 14.5 142.551 14.5C141.778 14.5 141.238 14.66 140.931 14.98C140.624 15.2867 140.471 15.7733 140.471 16.44ZM148.829 22V12.52H151.829L151.929 13.34C152.315 13.0733 152.802 12.84 153.389 12.64C153.975 12.4267 154.602 12.32 155.269 12.32C156.495 12.32 157.389 12.6133 157.949 13.2C158.509 13.7867 158.789 14.6933 158.789 15.92V22H155.569V16.18C155.569 15.6467 155.455 15.2667 155.229 15.04C155.002 14.8133 154.595 14.7 154.009 14.7C153.662 14.7 153.309 14.78 152.949 14.94C152.589 15.1 152.289 15.3 152.049 15.54V22H148.829ZM164.623 22.2C163.45 22.2 162.583 21.9 162.023 21.3C161.476 20.7 161.203 19.8733 161.203 18.82V14.96H159.923V12.52H161.203V10.54L164.423 9.68V12.52H166.723L166.583 14.96H164.423V18.6C164.423 19.0533 164.536 19.3733 164.763 19.56C164.99 19.7333 165.33 19.82 165.783 19.82C166.17 19.82 166.563 19.7533 166.963 19.62V21.8C166.336 22.0667 165.556 22.2 164.623 22.2ZM173.284 22.2C171.63 22.2 170.304 21.7933 169.304 20.98C168.304 20.1533 167.804 18.9133 167.804 17.26C167.804 15.7533 168.217 14.5533 169.044 13.66C169.87 12.7667 171.11 12.32 172.764 12.32C174.27 12.32 175.437 12.7067 176.264 13.48C177.09 14.2533 177.504 15.2933 177.504 16.6V18.3H170.784C170.93 18.9267 171.27 19.3667 171.804 19.62C172.35 19.86 173.09 19.98 174.024 19.98C174.544 19.98 175.07 19.9333 175.604 19.84C176.15 19.7467 176.604 19.6267 176.964 19.48V21.58C176.51 21.7933 175.97 21.9467 175.344 22.04C174.717 22.1467 174.03 22.2 173.284 22.2ZM170.784 16.44H174.704V16.02C174.704 15.5533 174.564 15.1867 174.284 14.92C174.004 14.64 173.53 14.5 172.864 14.5C172.09 14.5 171.55 14.66 171.244 14.98C170.937 15.2867 170.784 15.7733 170.784 16.44ZM179.141 22V12.52H182.201L182.301 13.4C182.714 13.1467 183.228 12.92 183.841 12.72C184.454 12.5067 185.068 12.3733 185.681 12.32V14.74C185.334 14.78 184.948 14.8467 184.521 14.94C184.108 15.02 183.708 15.12 183.321 15.24C182.948 15.36 182.628 15.4867 182.361 15.62V22H179.141Z" fill="white"/>
<path d="M18.9 16C18.9 16.0552 18.9448 16.1 19 16.1C19.0552 16.1 19.1 16.0552 19.1 16H18.9ZM18.9 11V16H19.1V11H18.9Z" fill="#FFC12B"/>
<path fill-rule="evenodd" clip-rule="evenodd" d="M4.28368 14.6836C4.11745 14.6005 3.92188 14.7214 3.92188 14.9072V19.082C3.92188 19.082 3.92188 23.0052 10.4605 23.0052C16.9991 23.0052 16.9991 19.082 16.9991 19.082V14.9066C16.9991 14.7207 16.8035 14.5999 16.6373 14.683L10.9071 17.5481C10.6255 17.6889 10.2942 17.6889 10.0126 17.5481L4.28368 14.6836Z" fill="white"/>
<path d="M10.9071 17.5481L10.8623 17.4587H10.8623L10.9071 17.5481ZM10.0126 17.5481L10.0574 17.4587H10.0574L10.0126 17.5481ZM16.6373 14.683L16.682 14.7724L16.6373 14.683ZM16.8991 19.082C16.8991 19.1373 16.9439 19.182 16.9991 19.182C17.0544 19.182 17.0991 19.1373 17.0991 19.082H16.8991ZM3.82187 19.082C3.82187 19.1373 3.86665 19.182 3.92188 19.182C3.9771 19.182 4.02188 19.1373 4.02188 19.082H3.82187ZM4.02188 19.082V14.9072H3.82187V19.082H4.02188ZM10.4605 22.9052C7.21188 22.9052 5.60927 21.9315 4.81603 20.9796C4.41804 20.502 4.2195 20.025 4.12039 19.6683C4.07083 19.4899 4.04619 19.3417 4.03394 19.2388C4.02782 19.1874 4.0248 19.1473 4.02332 19.1205C4.02257 19.1072 4.02221 19.0971 4.02204 19.0906C4.02195 19.0874 4.02191 19.085 4.02189 19.0836C4.02188 19.0828 4.02188 19.0823 4.02188 19.0821C4.02188 19.082 4.02187 19.0819 4.02187 19.0819C4.02187 19.0819 4.02187 19.0819 4.02187 19.0819C4.02187 19.082 4.02188 19.082 3.92188 19.082C3.82187 19.082 3.82188 19.0821 3.82188 19.0822C3.82188 19.0823 3.82188 19.0824 3.82188 19.0825C3.82188 19.0828 3.82188 19.0831 3.82188 19.0834C3.82188 19.0841 3.82189 19.085 3.82191 19.0862C3.82194 19.0885 3.822 19.0918 3.82211 19.096C3.82234 19.1043 3.82277 19.1163 3.82363 19.1316C3.82533 19.1623 3.8287 19.2066 3.83535 19.2624C3.84864 19.3741 3.87508 19.5324 3.92769 19.7218C4.03292 20.1006 4.24304 20.6044 4.66238 21.1076C5.50379 22.1173 7.17049 23.1052 10.4605 23.1052V22.9052ZM16.9991 19.082C16.8991 19.082 16.8991 19.082 16.8991 19.0819C16.8991 19.0819 16.8991 19.0819 16.8991 19.0819C16.8991 19.0819 16.8991 19.082 16.8991 19.0821C16.8991 19.0823 16.8991 19.0828 16.8991 19.0836C16.8991 19.085 16.899 19.0874 16.899 19.0906C16.8988 19.0971 16.8984 19.1072 16.8977 19.1205C16.8962 19.1473 16.8932 19.1874 16.8871 19.2388C16.8748 19.3417 16.8502 19.4899 16.8006 19.6683C16.7015 20.025 16.503 20.502 16.105 20.9796C15.3117 21.9315 13.7091 22.9052 10.4605 22.9052V23.1052C13.7505 23.1052 15.4172 22.1173 16.2586 21.1076C16.678 20.6044 16.8881 20.1006 16.9933 19.7218C17.0459 19.5324 17.0724 19.3741 17.0857 19.2624C17.0923 19.2066 17.0957 19.1623 17.0974 19.1316C17.0982 19.1163 17.0987 19.1043 17.0989 19.096C17.099 19.0918 17.0991 19.0885 17.0991 19.0862C17.0991 19.085 17.0991 19.0841 17.0991 19.0834C17.0991 19.0831 17.0991 19.0828 17.0991 19.0825C17.0991 19.0824 17.0991 19.0823 17.0991 19.0822C17.0991 19.0821 17.0991 19.082 16.9991 19.082ZM16.8991 14.9066V19.082H17.0991V14.9066H16.8991ZM16.5926 14.5935L10.8623 17.4587L10.9518 17.6375L16.682 14.7724L16.5926 14.5935ZM10.8623 17.4587C10.609 17.5853 10.3107 17.5853 10.0574 17.4587L9.96791 17.6375C10.2776 17.7924 10.6421 17.7924 10.9518 17.6375L10.8623 17.4587ZM10.0574 17.4587L4.3284 14.5942L4.23896 14.7731L9.96791 17.6375L10.0574 17.4587ZM17.0991 14.9066C17.0991 14.6464 16.8253 14.4772 16.5926 14.5935L16.682 14.7724C16.7818 14.7225 16.8991 14.7951 16.8991 14.9066H17.0991ZM16.9991 19.082C17.0991 19.082 17.0991 19.082 17.0991 19.082C16.9991 19.082 16.8991 19.082 16.8991 19.082H17.0991C17.0991 19.082 16.9991 19.082 16.8991 19.082C16.8991 19.082 16.8991 19.082 16.9991 19.082ZM4.02188 14.9072C4.02188 14.7957 4.13922 14.7232 4.23896 14.7731L4.3284 14.5942C4.09568 14.4778 3.82187 14.647 3.82187 14.9072H4.02188ZM4.02188 19.082C4.02188 19.082 3.92188 19.082 3.82187 19.082C3.82187 19.082 3.82187 19.082 3.92188 19.082C4.02188 19.082 4.02188 19.082 4.02188 19.082C3.92188 19.082 3.82187 19.082 3.82187 19.082H4.02188Z" fill="white"/>
<path d="M0.845566 11.0571L10.268 6.12153C10.4133 6.04541 10.5867 6.04541 10.732 6.12153L20.1544 11.0571C20.5118 11.2443 20.5118 11.7557 20.1544 11.9429L10.732 16.8785C10.5867 16.9546 10.4133 16.9546 10.268 16.8785L0.845566 11.9429C0.488238 11.7557 0.488237 11.2443 0.845566 11.0571Z" fill="#FFC12B" stroke="#FFC12B" stroke-width="0.2" stroke-linecap="round" stroke-linejoin="round"/>
</svg>
