<svg width="21" height="19" viewBox="0 0 21 19" fill="none" xmlns="http://www.w3.org/2000/svg">
<path fill-rule="evenodd" clip-rule="evenodd" d="M4.28368 9.68362C4.11745 9.60051 3.92188 9.72138 3.92188 9.90723V14.082C3.92188 14.082 3.92188 18.0052 10.4605 18.0052C16.9991 18.0052 16.9991 14.082 16.9991 14.082V9.90657C16.9991 9.72073 16.8035 9.59985 16.6373 9.68297L10.9071 12.5481C10.6255 12.6889 10.2942 12.6889 10.0126 12.5481L4.28368 9.68362Z" fill="white"/>
<path d="M10.9071 12.5481L10.8623 12.4587H10.8623L10.9071 12.5481ZM10.0126 12.5481L10.0574 12.4587H10.0574L10.0126 12.5481ZM16.6373 9.68297L16.682 9.77241L16.6373 9.68297ZM16.8991 14.082C16.8991 14.1373 16.9439 14.182 16.9991 14.182C17.0544 14.182 17.0991 14.1373 17.0991 14.082H16.8991ZM3.82187 14.082C3.82187 14.1373 3.86665 14.182 3.92188 14.182C3.9771 14.182 4.02188 14.1373 4.02188 14.082H3.82187ZM4.02188 14.082V9.90723H3.82187V14.082H4.02188ZM10.4605 17.9052C7.21188 17.9052 5.60927 16.9315 4.81603 15.9796C4.41804 15.502 4.2195 15.025 4.12039 14.6683C4.07083 14.4899 4.04619 14.3417 4.03394 14.2388C4.02782 14.1874 4.0248 14.1473 4.02332 14.1205C4.02257 14.1072 4.02221 14.0971 4.02204 14.0906C4.02195 14.0874 4.02191 14.085 4.02189 14.0836C4.02188 14.0828 4.02188 14.0823 4.02188 14.0821C4.02188 14.082 4.02187 14.0819 4.02187 14.0819C4.02187 14.0819 4.02187 14.0819 4.02187 14.0819C4.02187 14.082 4.02188 14.082 3.92188 14.082C3.82187 14.082 3.82188 14.0821 3.82188 14.0822C3.82188 14.0823 3.82188 14.0824 3.82188 14.0825C3.82188 14.0828 3.82188 14.0831 3.82188 14.0834C3.82188 14.0841 3.82189 14.085 3.82191 14.0862C3.82194 14.0885 3.822 14.0918 3.82211 14.096C3.82234 14.1043 3.82277 14.1163 3.82363 14.1316C3.82533 14.1623 3.8287 14.2066 3.83535 14.2624C3.84864 14.3741 3.87508 14.5324 3.92769 14.7218C4.03292 15.1006 4.24304 15.6044 4.66238 16.1076C5.50379 17.1173 7.17049 18.1052 10.4605 18.1052V17.9052ZM16.9991 14.082C16.8991 14.082 16.8991 14.082 16.8991 14.0819C16.8991 14.0819 16.8991 14.0819 16.8991 14.0819C16.8991 14.0819 16.8991 14.082 16.8991 14.0821C16.8991 14.0823 16.8991 14.0828 16.8991 14.0836C16.8991 14.085 16.899 14.0874 16.899 14.0906C16.8988 14.0971 16.8984 14.1072 16.8977 14.1205C16.8962 14.1473 16.8932 14.1874 16.8871 14.2388C16.8748 14.3417 16.8502 14.4899 16.8006 14.6683C16.7015 15.025 16.503 15.502 16.105 15.9796C15.3117 16.9315 13.7091 17.9052 10.4605 17.9052V18.1052C13.7505 18.1052 15.4172 17.1173 16.2586 16.1076C16.678 15.6044 16.8881 15.1006 16.9933 14.7218C17.0459 14.5324 17.0724 14.3741 17.0857 14.2624C17.0923 14.2066 17.0957 14.1623 17.0974 14.1316C17.0982 14.1163 17.0987 14.1043 17.0989 14.096C17.099 14.0918 17.0991 14.0885 17.0991 14.0862C17.0991 14.085 17.0991 14.0841 17.0991 14.0834C17.0991 14.0831 17.0991 14.0828 17.0991 14.0825C17.0991 14.0824 17.0991 14.0823 17.0991 14.0822C17.0991 14.0821 17.0991 14.082 16.9991 14.082ZM16.8991 9.90657V14.082H17.0991V9.90657H16.8991ZM16.5926 9.59352L10.8623 12.4587L10.9518 12.6375L16.682 9.77241L16.5926 9.59352ZM10.8623 12.4587C10.609 12.5853 10.3107 12.5853 10.0574 12.4587L9.96791 12.6375C10.2776 12.7924 10.6421 12.7924 10.9518 12.6375L10.8623 12.4587ZM10.0574 12.4587L4.3284 9.59418L4.23896 9.77306L9.96791 12.6375L10.0574 12.4587ZM17.0991 9.90657C17.0991 9.64639 16.8253 9.47717 16.5926 9.59352L16.682 9.77241C16.7818 9.72254 16.8991 9.79507 16.8991 9.90657H17.0991ZM16.9991 14.082C17.0991 14.082 17.0991 14.082 17.0991 14.082C16.9991 14.082 16.8991 14.082 16.8991 14.082H17.0991C17.0991 14.082 16.9991 14.082 16.8991 14.082C16.8991 14.082 16.8991 14.082 16.9991 14.082ZM4.02188 9.90723C4.02188 9.79572 4.13922 9.72319 4.23896 9.77306L4.3284 9.59418C4.09568 9.47782 3.82187 9.64704 3.82187 9.90723H4.02188ZM4.02188 14.082C4.02188 14.082 3.92188 14.082 3.82187 14.082C3.82187 14.082 3.82187 14.082 3.92188 14.082C4.02188 14.082 4.02188 14.082 4.02188 14.082C3.92188 14.082 3.82187 14.082 3.82187 14.082H4.02188Z" fill="white"/>
<path d="M0.845566 6.05708L10.268 1.12153C10.4133 1.04541 10.5867 1.04541 10.732 1.12153L20.1544 6.05708C20.5118 6.24426 20.5118 6.75574 20.1544 6.94292L10.732 11.8785C10.5867 11.9546 10.4133 11.9546 10.268 11.8785L0.845566 6.94292C0.488238 6.75574 0.488237 6.24426 0.845566 6.05708Z" fill="#FFC12B" stroke="#FFC12B" stroke-width="0.2" stroke-linecap="round" stroke-linejoin="round"/>
</svg>
